<svg xmlns="http://www.w3.org/2000/svg" viewBox="0 0 320 180"><rect width="320" height="180" fill="#1f232c"/><rect x="40" y="52" width="240" height="84" rx="10" fill="#2a2f3a"/><g fill="#9aa3b2"><rect x="54" y="64" width="18" height="16" rx="3"/><rect x="76" y="64" width="18" height="16" rx="3"/><rect x="98" y="64" width="18" height="16" rx="3"/><rect x="120" y="64" width="18" height="16" rx="3"/><rect x="142" y="64" width="18" height="16" rx="3"/><rect x="164" y="64" width="18" height="16" rx="3"/><rect x="186" y="64" width="18" height="16" rx="3"/><rect x="208" y="64" width="18" height="16" rx="3"/><rect x="230" y="64" width="36" height="16" rx="3"/><rect x="54" y="86" width="28" height="16" rx="3"/><rect x="86" y="86" width="18" height="16" rx="3"/><rect x="108" y="86" width="18" height="16" rx="3"/><rect x="130" y="86" width="18" height="16" rx="3"/><rect x="152" y="86" width="18" height="16" rx="3"/><rect x="174" y="86" width="18" height="16" rx="3"/><rect x="196" y="86" width="18" height="16" rx="3"/><rect x="218" y="86" width="48" height="16" rx="3"/></g><rect x="96" y="108" width="128" height="16" rx="3" fill="#6aa6ff"/></svg>
